<?xml version="1.0" standalone="no"?>
<!DOCTYPE svg PUBLIC "-//W3C//DTD SVG 20010904//EN"
 "http://www.w3.org/TR/2001/REC-SVG-20010904/DTD/svg10.dtd">
<svg version="1.0" xmlns="http://www.w3.org/2000/svg"
 width="782.000000pt" height="97.000000pt" viewBox="0 0 782.000000 97.000000"
 preserveAspectRatio="xMidYMid meet">

<g transform="translate(0.000000,97.000000) scale(0.100000,-0.100000)"
fill="#000000" stroke="none">
<path d="M1373 853 c-40 -2 -73 -7 -73 -11 0 -4 19 -14 43 -22 l42 -15 3 -98
3 -98 -23 12 c-38 20 -118 16 -163 -9 -63 -36 -89 -82 -93 -167 -3 -57 0 -80
16 -111 50 -98 139 -126 228 -73 30 18 32 18 36 2 4 -15 15 -18 71 -15 37 2
67 7 67 10 0 4 -15 14 -33 22 l-32 15 -3 283 c-1 155 -6 281 -10 280 -4 -1
-40 -4 -79 -5z m-8 -268 c24 -23 25 -30 25 -149 l0 -125 -29 -20 c-95 -68
-194 32 -177 178 7 56 35 114 64 131 33 19 91 12 117 -15z"/>
<path d="M4473 853 c-69 -4 -80 -15 -33 -32 18 -6 34 -21 40 -36 11 -28 14
-454 4 -492 -3 -12 -17 -24 -30 -27 -53 -14 -21 -26 66 -26 90 0 115 11 66 29
-13 5 -26 17 -30 26 -3 9 -6 140 -6 291 0 151 -3 273 -7 272 -5 -1 -36 -3 -70
-5z"/>
<path d="M7023 852 c-67 -3 -83 -18 -33 -29 17 -3 35 -14 40 -24 6 -10 10
-135 10 -293 0 -152 4 -276 9 -276 5 0 15 9 22 21 14 19 15 19 48 3 48 -24
129 -23 171 2 57 33 93 94 98 164 12 168 -124 268 -251 185 l-26 -17 -3 133
c-2 78 -7 133 -13 134 -5 0 -38 -1 -72 -3z m232 -274 c38 -30 55 -76 55 -153
0 -72 -25 -136 -59 -155 -36 -19 -90 -12 -116 15 -24 23 -25 30 -25 152 l0
128 28 17 c37 24 84 22 117 -4z"/>
<path d="M350 811 c-90 -19 -164 -84 -195 -171 -24 -68 -20 -194 9 -256 44
-94 123 -147 221 -148 76 0 123 16 164 56 34 33 66 86 58 95 -3 2 -29 -20 -59
-50 -42 -43 -62 -56 -94 -62 -88 -14 -165 33 -207 125 -25 55 -29 172 -8 242
28 98 112 158 196 142 45 -8 102 -72 118 -131 6 -24 17 -43 24 -43 10 0 13 25
13 100 0 81 -3 100 -15 100 -7 0 -18 -7 -23 -15 -7 -14 -12 -14 -43 -1 -45 19
-115 26 -159 17z"/>
<path d="M787 625 c-78 -27 -127 -101 -127 -190 0 -154 147 -247 282 -179 52
27 98 113 98 184 0 83 -61 168 -135 189 -51 14 -71 13 -118 -4z m128 -39 c60
-60 61 -234 0 -300 -26 -28 -79 -35 -116 -16 -35 19 -60 85 -61 159 -1 123 36
181 114 181 28 0 46 -7 63 -24z"/>
<path d="M1695 625 c-73 -26 -115 -98 -115 -198 0 -94 43 -158 126 -184 45
-14 59 -14 98 -3 41 11 116 70 116 92 0 16 -30 8 -40 -12 -30 -55 -129 -64
-180 -15 -27 26 -50 83 -50 124 0 20 4 21 130 21 l130 0 0 34 c0 41 -22 95
-47 118 -18 16 -85 38 -113 38 -8 -1 -33 -7 -55 -15z m105 -25 c18 -10 40 -65
40 -103 0 -16 -9 -17 -92 -15 l-93 3 3 35 c6 69 82 112 142 80z"/>
<path d="M2028 633 c-32 -2 -58 -7 -58 -11 0 -4 14 -15 30 -24 l30 -17 0 -151
0 -150 -25 -12 c-46 -21 -26 -28 75 -28 97 0 131 12 73 26 -51 12 -53 18 -53
146 0 66 5 128 10 139 9 16 58 49 75 49 3 0 5 -11 5 -25 0 -14 8 -29 19 -35
25 -13 27 -13 45 6 24 24 20 61 -9 80 -21 14 -30 15 -58 4 -17 -7 -44 -25 -59
-38 l-28 -26 0 37 c0 20 -3 36 -7 35 -5 -1 -34 -3 -65 -5z"/>
<path d="M2558 633 c-64 -4 -73 -15 -30 -35 l27 -13 3 -243 2 -243 -30 -10
c-55 -20 -31 -29 75 -29 102 0 137 12 78 26 -48 11 -53 22 -53 100 0 73 5 85
28 62 6 -6 37 -12 69 -12 44 -1 67 5 95 22 103 64 125 230 41 323 -59 66 -138
72 -207 18 l-26 -20 0 30 c0 17 -3 30 -7 29 -5 -1 -34 -3 -65 -5z m229 -55
c27 -22 53 -90 53 -138 0 -148 -92 -227 -179 -154 l-31 26 0 124 0 124 33 21
c35 22 95 21 124 -3z"/>
<path d="M3125 631 c-69 -17 -115 -65 -136 -141 -37 -139 68 -271 201 -254 81
11 128 49 155 123 42 120 -12 243 -120 270 -48 12 -56 12 -100 2z m113 -43
c31 -34 42 -72 42 -147 0 -120 -34 -181 -102 -181 -54 0 -76 15 -99 63 -38 84
-16 244 38 276 33 19 97 13 121 -11z"/>
<path d="M3468 633 c-32 -2 -58 -7 -58 -11 0 -4 14 -15 30 -24 l30 -17 1 -123
c0 -68 5 -138 12 -158 25 -71 121 -89 186 -34 35 29 39 30 43 4 2 -12 6 -21
11 -20 4 0 32 0 62 0 30 0 55 3 55 8 0 4 -14 15 -30 24 l-30 17 0 172 c0 152
-2 170 -16 165 -9 -3 -40 -6 -70 -6 -61 0 -70 -11 -21 -25 l32 -10 3 -136 c2
-131 2 -136 -21 -157 -13 -13 -40 -25 -60 -29 -29 -4 -40 -1 -61 20 -26 26
-26 28 -26 187 0 88 -3 159 -7 158 -5 -1 -34 -3 -65 -5z"/>
<path d="M3958 633 c-57 -4 -75 -17 -40 -30 37 -14 41 -35 42 -181 l0 -143
-30 -10 c-55 -20 -31 -29 70 -29 101 0 130 12 68 28 l-33 8 -3 136 -3 136 31
26 c42 35 60 34 60 -3 0 -20 6 -32 19 -36 34 -11 51 4 51 46 0 33 -4 41 -25
49 -31 12 -98 -12 -120 -43 -14 -21 -15 -20 -15 16 0 20 -3 36 -7 35 -5 -1
-34 -3 -65 -5z"/>
<path d="M4795 628 c-107 -39 -155 -178 -101 -293 26 -57 54 -79 119 -95 61
-16 122 1 164 47 18 19 33 39 33 44 0 18 -21 8 -49 -23 -26 -30 -35 -33 -84
-33 -78 0 -116 38 -132 133 l-7 42 131 0 131 0 0 43 c0 47 -26 97 -63 121 -31
21 -105 28 -142 14z m115 -50 c11 -18 20 -48 20 -65 l0 -33 -89 0 c-50 0 -92
4 -95 8 -11 17 15 82 41 102 16 12 41 20 64 20 34 0 42 -5 59 -32z"/>
<path d="M5164 629 c-66 -19 -104 -102 -70 -154 18 -27 73 -59 123 -69 51 -11
83 -42 83 -80 0 -44 -26 -66 -78 -66 -48 0 -101 39 -122 90 -20 48 -30 35 -30
-40 0 -53 3 -70 14 -70 8 0 17 7 20 15 5 14 9 14 32 -2 40 -26 120 -23 167 6
52 32 69 89 41 140 -16 30 -31 41 -97 67 -89 35 -109 51 -109 90 0 35 25 54
72 54 45 0 73 -19 94 -65 26 -53 37 -43 29 28 -7 72 -8 74 -27 58 -11 -9 -24
-10 -53 -2 -43 12 -47 12 -89 0z"/>
<path d="M5845 633 c-11 -3 -37 -18 -57 -34 l-38 -30 0 29 0 28 -62 -4 c-64
-4 -84 -11 -59 -20 7 -2 22 -13 32 -23 17 -17 19 -35 19 -160 l0 -141 -30 -11
c-52 -20 -33 -27 65 -27 98 0 122 12 65 31 l-30 11 0 133 0 134 28 19 c47 34
86 37 118 9 28 -24 29 -28 32 -136 5 -131 0 -158 -33 -173 -45 -20 -27 -28 65
-28 53 0 90 4 90 10 0 6 -4 10 -10 10 -5 0 -19 9 -30 20 -18 18 -20 33 -20
150 0 149 -10 181 -61 199 -33 11 -49 12 -84 4z"/>
<path d="M6254 631 c-56 -14 -94 -44 -119 -95 -80 -160 43 -335 206 -296 95
23 143 90 144 202 0 58 -4 72 -30 109 -17 24 -44 51 -60 61 -37 21 -99 30
-141 19z m101 -37 c48 -31 70 -153 45 -245 -20 -73 -91 -110 -151 -79 -79 43
-83 271 -5 325 27 19 81 19 111 -1z"/>
<path d="M6693 631 c-47 -12 -80 -36 -111 -83 -23 -36 -27 -52 -27 -113 0 -61
4 -77 28 -114 68 -103 202 -118 288 -32 88 87 75 251 -25 319 -36 24 -106 34
-153 23z m110 -41 c37 -29 50 -80 45 -175 -4 -72 -8 -88 -32 -119 -24 -32 -32
-36 -72 -36 -75 0 -114 61 -114 177 0 74 25 143 57 162 30 17 88 13 116 -9z"/>
<path d="M7553 633 c-13 -2 -36 -18 -53 -34 -23 -23 -30 -40 -30 -69 0 -58 36
-94 121 -121 41 -13 76 -31 85 -43 35 -51 1 -106 -67 -106 -52 0 -90 27 -114
79 -10 23 -22 41 -27 41 -4 0 -8 -31 -8 -70 0 -56 3 -70 15 -70 8 0 15 7 15
15 0 14 3 14 28 1 106 -54 222 -3 222 98 0 57 -31 88 -117 117 -99 33 -128 74
-83 119 32 32 91 27 129 -11 17 -17 31 -39 31 -50 0 -10 5 -19 10 -19 6 0 10
28 10 65 0 64 -6 75 -27 54 -8 -8 -22 -8 -49 0 -40 11 -52 12 -91 4z"/>
</g>
</svg>
